<svg width="32" height="32" viewBox="0 0 32 32" fill="none" xmlns="http://www.w3.org/2000/svg">
<rect width="32" height="32" fill="#FAFAFA"/>
<path fill-rule="evenodd" clip-rule="evenodd" d="M24.3729 1.00169C24.8818 0.976434 25.3688 1.23527 25.6727 1.69256C41.8101 35.6517 15.16 31.0848 20 29.5C21.5014 29.0084 24.4365 26.7079 25 26C28.0175 22.5676 27.8253 18.4226 27.1804 14.1612C26.7082 11.0408 25.5045 6.16579 24.3729 3.95647L22.5617 9.4225C22.1955 10.0899 21.4717 10.3955 20.8024 10.1652C19.8175 9.82631 18.5036 9.73231 17.1768 9.79091C15.8712 9.84857 14.6818 10.0473 14.015 10.2043C13.2898 10.375 12.5591 9.94179 12.2785 9.17471L10.8661 3.95647C7.14252 7.16778 5.58944 12.7743 5.30362 16.4786C5.02318 17.373 2.95926 17.3214 2.15948 17.0077C1.35969 16.6941 0.79219 15.1008 1.07263 14.2064C1.64195 12.3906 2.40666 10.8904 4.03035 8.13143C5.63856 5.3988 8.16603 2.76375 10.8661 1.19356C11.2487 0.971031 11.6975 0.93886 12.1024 1.10493C12.5073 1.27099 12.8311 1.61996 12.9944 2.0664L14.6536 6.60218C15.3567 6.49255 16.1849 6.39964 17.0557 6.36118C18.1407 6.31326 19.3647 6.34599 20.5245 6.57247L23.133 1.81861C23.3994 1.33301 23.864 1.02695 24.3729 1.00169ZM6.16183 28.2495C5.62645 27.9771 5.20579 27.6364 4.89986 27.2277C4.60088 26.819 4.40272 26.4343 4.30538 26.0737C3.99193 24.9734 3.93237 23.9321 4.07594 22.9526C2.42495 23.1428 1.30945 23.0986 1.19702 22.5372C1.02078 21.6574 2.59688 20.6147 5.33609 19.7673C8.2358 15.3851 15.1282 12.8055 18.5729 12.4173C19.8245 12.281 20.7319 12.2129 21.2951 12.2129C21.8652 12.2129 22.2685 12.3171 22.5049 12.5254C22.7482 12.7338 22.8908 13.0464 22.9325 13.4631C22.9812 13.8719 22.9151 14.2165 22.7343 14.497C22.5535 14.7775 22.2963 15.0019 21.9625 15.1702C21.3437 15.4827 20.4989 15.639 19.4282 15.639C18.6425 15.639 17.9263 15.5028 17.2797 15.2303C17.1059 15.1501 16.9703 15.066 16.8729 14.9778C14.4231 15.5305 12.3978 16.8808 11.1132 18.5659C12.3682 18.403 13.7093 18.2821 15.1165 18.2153C18.2147 18.068 19.6696 18.7084 20.3285 19.1078C20.8728 19.4378 21.7315 20.4186 20.8216 20.9495C20.5004 20.7548 19.9134 20.8345 18.9219 20.9691C18.129 21.0768 17.0773 21.2196 15.6962 21.2853C13.83 21.374 11.6935 21.7011 9.64413 22.0503C9.5933 22.4935 9.5924 22.9389 9.64529 23.3808C9.6731 23.6052 9.75306 23.8016 9.88517 23.9699C10.0173 24.1382 10.1946 24.2865 10.4171 24.4147C10.8343 24.6391 11.3418 24.7833 11.9398 24.8475C12.5447 24.9036 13.1287 24.9316 13.6919 24.9316C14.2621 24.9316 14.8705 24.8795 15.5171 24.7753C16.1707 24.6631 16.7791 24.5229 17.3423 24.3546C17.9124 24.1863 18.4339 24.01 18.9067 23.8256C19.3865 23.6333 19.8036 23.453 20.1582 23.2847L22.5995 21.8676C22.822 21.7554 23.0236 21.6993 23.2044 21.6993C23.6842 21.6993 23.9553 21.9919 24.0179 22.5769C24.1013 23.3703 21.7435 25.2722 20.1165 26.266C17.9402 27.6044 15.5345 28.4779 12.8993 28.8867C12.2874 28.9828 11.5504 29.0309 10.6882 29.0309C9.83302 29.0309 8.99866 28.9668 8.18515 28.8386C7.37165 28.7104 6.69721 28.514 6.16183 28.2495Z" fill="#555CF3"/>
</svg>
