<svg width="31" height="33" viewBox="0 0 31 33" fill="none" xmlns="http://www.w3.org/2000/svg">
<path fill-rule="evenodd" clip-rule="evenodd" d="M23.5578 0.0018107C24.0663 -0.0252226 24.5528 0.25181 24.8564 0.741234C40.9792 37.087 14.8704 32.6961 19.7061 31C21.0405 30.5319 23.1113 27.657 23.9486 26.4946C24.0525 26.3503 24.1375 26.2324 24.1996 26.1488C27.2144 22.4752 27.0071 18.6471 26.3628 14.0862C25.891 10.7464 24.6884 5.52884 23.5578 3.16425L21.7482 9.01442C21.3823 9.72878 20.6592 10.0558 19.9905 9.80933C19.0066 9.44661 17.6938 9.34601 16.3682 9.40873C15.0638 9.47044 13.8755 9.68313 13.2093 9.85115C12.4847 10.0339 11.7547 9.57021 11.4744 8.74922L10.0632 3.16425C6.34301 6.60125 4.79134 12.6018 4.50578 16.5664C4.22559 17.5237 2.16354 17.4684 1.36448 17.1327C0.56542 16.7971 -0.00156702 15.0918 0.278623 14.1345C0.847421 12.1911 1.61144 10.5855 3.23366 7.63262C4.84041 4.70794 7.3656 1.8877 10.0632 0.207167C10.4455 -0.0310046 10.8938 -0.0654372 11.2984 0.112299C11.703 0.290036 12.0264 0.663532 12.1896 1.14134L13.8473 5.99589C14.5498 5.87856 15.3772 5.77912 16.2472 5.73795C17.3312 5.68667 18.5541 5.7217 19.7129 5.9641L22.319 0.876136C22.5852 0.356418 23.0493 0.028844 23.5578 0.0018107ZM5.36399 29.1637C4.82909 28.8721 4.40882 28.5075 4.10316 28.07C3.80445 27.6326 3.60647 27.2209 3.50922 26.8349C3.19609 25.6574 3.13656 24.5431 3.27994 23.4948C1.62994 23.6985 0.515063 23.6513 0.402708 23.0504C0.22661 22.1086 1.80164 20.9925 4.5389 20.0855C7.43593 15.3953 14.3222 12.6342 17.7639 12.2187C19.0143 12.0729 19.9208 12 20.4835 12C21.0531 12 21.456 12.1115 21.6922 12.3345C21.9354 12.5575 22.0778 12.8921 22.1195 13.3381C22.1681 13.7756 22.1021 14.1444 21.9215 14.4446C21.7409 14.7448 21.4838 14.985 21.1504 15.1651C20.5321 15.4996 19.6881 15.6669 18.6183 15.6669C17.8333 15.6669 17.1178 15.5211 16.4718 15.2294C16.2981 15.1437 16.1627 15.0536 16.0654 14.9593C13.6176 15.5508 11.5941 16.9961 10.3106 18.7998C11.5643 18.6256 12.9039 18.4962 14.3096 18.4246C17.405 18.267 18.8585 18.9524 19.5169 19.3799C20.0606 19.7331 20.9186 20.7828 20.0095 21.351C19.6887 21.1427 19.1021 21.228 18.1115 21.3721C17.3193 21.4873 16.2687 21.6402 14.8887 21.7104C13.0246 21.8054 10.8903 22.1553 8.84311 22.529C8.79235 23.0033 8.79146 23.4799 8.84429 23.9528C8.87208 24.193 8.95197 24.4031 9.08395 24.5833C9.21594 24.7634 9.39308 24.9221 9.61538 25.0593C10.0322 25.2995 10.5393 25.4539 11.1367 25.5225C11.7411 25.5826 12.3246 25.6126 12.8873 25.6126C13.4569 25.6126 14.0647 25.5568 14.7108 25.4453C15.3638 25.3252 15.9716 25.1751 16.5343 24.995C17.1039 24.8149 17.6249 24.6262 18.0973 24.4289C18.5766 24.223 18.9934 24.03 19.3477 23.8499L21.7868 22.3333C22.0091 22.2132 22.2105 22.1531 22.3911 22.1531C22.8705 22.1531 23.1414 22.4662 23.2039 23.0924C23.2873 23.9416 20.9316 25.9771 19.306 27.0407C17.1317 28.4732 14.7282 29.4081 12.0954 29.8456C11.484 29.9485 10.7477 30 9.8863 30C9.03185 30 8.19825 29.9314 7.38548 29.7941C6.57272 29.6569 5.89889 29.4467 5.36399 29.1637Z" fill="#1B1B1B"/>
</svg>
