<svg xmlns="http://www.w3.org/2000/svg" width="200" height="36" viewBox="0 0 200 36" fill="none">
  <path fill-rule="evenodd" clip-rule="evenodd" d="M34.76 12.6265C34.3242 12.6681 33.9158 12.7071 33.5648 12.7367C34.6016 10.2821 35.2711 7.37463 34.4275 4.969C33.8931 3.4451 32.9502 2.06257 31.5481 1.13832C30.1366 0.207864 28.3717 -0.18405 26.3296 0.0813988C23.6202 0.433577 21.4326 2.04149 20.6249 4.13374C20.2121 5.20294 19.9403 6.88658 20.4533 8.01318C21.1137 10.3027 24.2626 11.928 25.3048 9.20608C25.5972 8.44251 25.2391 7.57701 24.5049 7.27293C23.7158 6.94609 23.3919 6.54835 23.265 6.26971C23.1415 5.99848 23.1202 5.65814 23.2805 5.24275C23.6191 4.36582 24.7701 3.28359 26.6845 3.03475C28.164 2.84243 29.2424 3.14219 30.0161 3.65222C30.7992 4.16846 31.3835 4.97524 31.739 5.98881C32.513 8.19619 31.7918 10.881 30.0863 12.3657C29.8621 12.5609 29.5083 12.8831 29.2892 13.2389C29.2266 13.3405 29.1311 13.5133 29.0709 13.7394C29.0112 13.9632 28.9515 14.3773 29.1499 14.8284C29.361 15.3081 29.7381 15.5485 30.0161 15.6534C30.2711 15.7496 30.5013 15.759 30.6364 15.7568C31.4094 15.7446 32.2227 15.64 33.0365 15.5352C33.6535 15.4558 34.2708 15.3763 34.8712 15.337C35.8633 15.2722 36.9699 15.3002 38.1888 15.3311L38.426 15.337C40.0034 15.3765 41.7337 15.8375 43.2436 16.2398C43.8766 16.4085 44.4708 16.5668 44.9988 16.6794C45.0246 16.6937 45.0508 16.7064 45.0773 16.7173C45.7347 16.9869 47.4312 17.0312 47.6618 16.2624C47.8967 13.0782 49.1734 8.25885 52.2341 5.49841L53.3952 9.98399C53.6258 10.6434 54.2265 11.0158 54.8226 10.869C55.3707 10.7341 56.3484 10.5632 57.4216 10.5137C58.5122 10.4633 59.5923 10.5441 60.4019 10.8354C60.952 11.0334 61.547 10.7707 61.848 10.197L63.3368 5.49841C64.267 7.39754 65.2565 11.5881 65.6446 14.2704C66.1192 17.5499 66.3056 20.3576 64.5596 23.0269L64.4816 22.9509C63.7135 24.3355 62.5898 24.8012 62.0691 24.8012C61.3646 24.8012 61.0124 24.5863 61.0124 24.1565C61.0124 24.0451 61.0353 23.9258 61.0813 23.7984C61.1272 23.6711 61.1502 23.492 61.1502 23.2613C61.1502 23.0387 61.1526 22.8044 61.1552 22.5621C61.1839 19.8219 61.2234 16.0498 57.8461 16.3974C56.6132 16.3974 55.2273 16.6481 53.6882 17.1494C52.9607 17.3882 52.1452 17.7264 51.2417 18.1641C50.3457 18.6018 49.4154 19.2424 48.4506 20.086C47.7269 20.7238 47.2031 21.3798 46.8794 22.054C46.8337 22.0815 46.788 22.108 46.7422 22.1334C46.5358 22.248 46.3672 22.3053 46.2364 22.3053C46.1126 22.3053 46.0162 22.2802 45.9474 22.2301C45.7135 22.0725 45.5965 21.8827 45.5965 21.6607C45.9406 20.9802 46.1126 20.3285 46.1126 19.7053C46.1126 18.7241 45.6481 18.2335 44.7191 18.2335C44.2099 18.2335 43.6698 18.477 43.0986 18.964C42.844 19.1861 42.6066 19.4332 42.3864 19.7053C42.1662 19.9775 41.9735 20.2497 41.8084 20.5218C41.6432 20.794 41.5125 21.0519 41.4162 21.2954C41.3267 21.5389 41.282 21.7609 41.282 21.9615C41.282 22.162 41.3061 22.359 41.3542 22.5524C40.1019 23.8201 39.2314 24.454 38.7428 24.454C38.096 24.454 37.7726 24.1782 37.7726 23.6267C37.7726 23.0036 38.1579 22.0653 38.9286 20.8119L39.9195 19.2004C40.0365 19.007 40.095 18.8602 40.095 18.7599C40.095 18.6525 40.0503 18.5415 39.9608 18.4269C39.6993 18.0759 39.2039 17.9004 38.4745 17.9004C37.6074 17.9004 36.8161 18.3015 36.1004 19.1037C35.4605 19.8199 34.996 20.6866 34.707 21.7036C33.3101 23.0501 32.2848 23.7234 31.6311 23.7234C31.2114 23.7234 31.0015 23.5587 31.0015 23.2292C31.0015 22.778 31.2045 22.2444 31.6105 21.6284C31.7825 21.3634 31.9717 21.102 32.1782 20.8441C32.3846 20.5863 32.6323 20.2497 32.9213 19.8343C33.2103 19.4188 33.3549 19.0285 33.3549 18.6632C33.3549 18.2406 33.1691 17.9327 32.7975 17.7393C32.6392 17.6533 32.4637 17.596 32.2711 17.5674C32.0784 17.5316 31.81 17.5137 31.466 17.5137C31.1288 17.5137 30.7194 17.6104 30.2377 17.8037C28.7926 18.3767 27.6641 19.5012 26.8521 21.1772C26.5918 21.7121 26.3947 22.2478 26.2606 22.7844L24.4902 23.8223C24.153 23.9839 23.7565 24.1571 23.3004 24.3417C22.8509 24.5187 22.3551 24.688 21.8131 24.8496C21.2777 25.0112 20.6993 25.1459 20.078 25.2536C19.4633 25.3537 18.8849 25.4037 18.3429 25.4037C17.8075 25.4037 17.2523 25.3767 16.6772 25.3229C16.1087 25.2613 15.6262 25.1228 15.2296 24.9073C15.0181 24.7842 14.8495 24.6418 14.724 24.4802C14.5984 24.3186 14.5224 24.1301 14.4959 23.9147C14.4602 23.6129 14.4503 23.3094 14.4649 23.0063C15.8964 22.7764 17.2976 22.5827 18.5906 22.4641C20.3231 22.3051 21.6485 22.0957 22.6479 21.9377C23.8975 21.7402 24.6374 21.6232 25.026 21.7864C26.2005 21.2169 25.1927 20.342 24.5341 20.0655C23.7369 19.7307 21.9601 19.2218 18.0738 19.5784C17.1966 19.6588 16.3389 19.7509 15.5039 19.8529C16.6816 17.9769 18.7742 16.4371 21.367 15.8462C21.4595 15.9309 21.5884 16.0117 21.7536 16.0886C22.3684 16.3503 23.0492 16.4811 23.7961 16.4811C24.814 16.4811 25.6171 16.331 26.2054 16.0309C26.5227 15.8693 26.7673 15.6539 26.9391 15.3845C27.111 15.1152 27.1738 14.7843 27.1275 14.3919C27.0879 13.9917 26.9524 13.6916 26.721 13.4915C26.4963 13.2914 26.1129 13.1914 25.5709 13.1914C25.0355 13.1914 24.1729 13.2568 22.9831 13.3876C19.6493 13.7671 12.9186 16.3273 10.254 20.6743C4.10363 21.866 0.143859 23.5307 0.365277 24.669C0.53961 25.5652 4.44249 24.8346 9.10526 23.9618L9.15135 23.9532C9.08876 24.761 9.16852 25.6105 9.41947 26.5002C9.51201 26.8465 9.7004 27.2159 9.98462 27.6083C10.2755 28.0008 10.6754 28.3278 11.1843 28.5895C11.6933 28.8434 12.3345 29.032 13.1078 29.1551C13.8812 29.2782 14.6744 29.3398 15.4874 29.3398C16.307 29.3398 17.0077 29.2936 17.5894 29.2012C20.0945 28.8088 22.3816 27.97 24.4505 26.6849C24.9807 26.3578 25.5926 25.9282 26.1647 25.4742C26.2914 25.9829 26.5205 26.4629 26.8521 26.9142C27.1136 27.2652 27.4301 27.5552 27.8017 27.7844C28.1802 28.0136 28.6206 28.1282 29.1229 28.1282C29.6321 28.1282 30.1069 28.0208 30.5473 27.8059C30.7882 27.6913 31.0909 27.5051 31.4556 27.2473C31.8272 26.9894 32.8456 26.0941 34.5109 24.5614C34.5866 25.4495 34.7586 26.1693 35.027 26.7208C35.144 26.9715 35.2747 27.1792 35.4192 27.344C35.5637 27.5087 35.7048 27.6412 35.8424 27.7415C35.98 27.8346 36.2656 27.9384 36.6991 28.053C36.878 28.096 37.0604 28.1318 37.2462 28.1605C37.432 28.1891 37.6281 28.2034 37.8345 28.2034C38.0409 28.2034 38.3506 28.1103 38.7635 27.9241C40.0915 27.3153 41.5435 26.2624 43.1193 24.7655C43.7523 25.138 44.3476 25.3242 44.9049 25.3242C45.4623 25.3242 45.944 25.2633 46.35 25.1415C46.4722 25.1055 46.5912 25.0663 46.7068 25.024C46.858 25.4661 47.087 25.9051 47.3939 26.341C48.1443 27.3995 49.1665 27.9287 50.4606 27.9287C51.6934 27.9287 53.1368 27.4989 54.7908 26.6395C56.3452 25.8277 57.5321 24.9364 58.3514 23.9655C57.1454 26.8543 58.7803 28.1197 58.9334 28.2152C59.4311 28.5096 60.0973 28.6568 60.932 28.6568C61.0075 28.6568 61.0837 28.6541 61.1605 28.6486C64.8703 28.866 74.3399 25.4148 64.4052 3.55236C64.1555 3.15927 63.7552 2.93677 63.3368 2.95849C62.9185 2.9802 62.5366 3.24329 62.3176 3.6607L60.1734 7.74712C59.22 7.55243 58.2139 7.5243 57.3221 7.56549C56.6062 7.59855 55.9255 7.67842 55.3475 7.77265L53.9836 3.8737C53.8494 3.48995 53.5833 3.18997 53.2504 3.04722C52.9175 2.90448 52.5487 2.93213 52.2341 3.12342C50.0147 4.47314 47.9371 6.73823 46.6151 9.08719C45.7027 10.7086 45.1202 11.8242 44.6935 12.8665C42.8294 12.4598 41.2845 12.4246 39.3708 12.381C39.1599 12.3762 38.9443 12.3712 38.7235 12.3657C37.7481 12.3413 36.1208 12.4966 34.76 12.6265ZM51.4829 22.4615L51.4714 22.4973V22.5092C51.4714 22.8514 51.5441 23.0742 51.6896 23.1777C52.0418 23.4005 52.4132 23.4602 52.8037 23.3568C53.1943 23.2453 53.5656 23.1101 53.9179 22.9509C54.7908 22.5609 55.5795 22.0675 56.284 21.4707C57.513 20.086 57.6355 19.4534 56.8238 18.9639C56.2112 18.9639 55.3842 19.2623 54.3429 19.8592C53.1943 20.5197 52.3328 21.2001 51.7585 21.9004C51.5747 22.1392 51.4829 22.3262 51.4829 22.4615Z" fill="#1C1C1C"/>
  <path fill-rule="evenodd" clip-rule="evenodd" d="M113.216 20.5507C112.285 21.3596 111.7 22.1994 111.458 23.0702C111.102 23.2874 110.737 23.473 110.362 23.6269C109.973 23.7897 109.573 23.8711 109.163 23.8711C108.752 23.8711 108.422 23.7118 108.172 23.3933C107.929 23.0747 107.807 22.6782 107.807 22.2039C107.807 21.7296 108.04 20.9579 108.506 19.8889L108.735 19.3685C108.784 19.2553 108.867 19.0889 108.985 18.8694L109.455 17.988C109.53 17.8515 109.664 17.5772 109.807 17.2839C110.05 16.7864 110.32 16.2342 110.372 16.2075C110.783 15.3402 110.751 15.4683 110.739 15.5186C110.737 15.5262 110.736 15.5323 110.736 15.5323C110.738 15.5331 110.762 15.475 110.863 15.2291L110.922 15.0866C123.97 14.5903 133.998 14.5336 141.508 14.5397C146.04 14.5435 148.358 14.4246 150.181 14.3312C152.661 14.204 154.226 14.1238 159.205 14.4627C159.337 14.4786 159.481 14.5089 159.627 14.5396C160.185 14.6573 160.77 14.7805 160.855 14.1165C160.962 13.2796 159.364 12.7556 158.688 12.6101C156.693 12.1806 152.136 11.4723 141.474 11.4635C134.111 11.4575 124.618 11.9974 112.168 12.765L112.928 11.351C113.004 11.1598 113.043 11.0076 113.043 10.8943C113.043 10.6253 112.872 10.3775 112.532 10.151C112.358 10.0448 112.142 9.95629 111.885 9.88549C111.635 9.81469 111.322 9.7793 110.946 9.7793C110.578 9.7793 110.254 9.89611 109.976 10.1297C109.705 10.3634 109.434 10.728 109.163 11.2235L108.053 13.0198L107.581 13.0491L107.579 13.0492L107.573 13.0496C103.171 13.3228 98.4285 13.6172 93.3136 13.9209C92.3845 13.9761 91.2135 14.209 91.2562 15.0575C91.2989 15.906 92.2313 16.0088 92.9145 15.9683C97.8151 15.6773 102.399 15.4447 106.683 15.2591C106.603 15.4176 106.563 15.4957 106.547 15.5287C106.539 15.5435 106.536 15.5492 106.536 15.5492L106.541 15.5385C106.57 15.4759 106.698 15.2023 106.033 16.4341C106.033 16.5049 105.471 17.5987 105.345 17.8394C104.883 18.6852 104.456 19.7053 104.065 20.8995C103.409 21.2769 102.87 21.4656 102.448 21.4656C101.814 21.4656 101.497 21.2749 101.497 20.8935C101.497 20.7946 101.518 20.6887 101.559 20.5757C101.6 20.4626 101.621 20.3037 101.621 20.0989C101.621 19.4067 101.401 18.8381 100.959 18.3931C100.773 18.1953 100.484 18.001 100.091 17.8103C99.705 17.6126 99.2638 17.5137 98.7676 17.5137C97.6578 17.5137 96.4102 17.7362 95.0248 18.1812C94.37 18.3931 93.6359 18.6933 92.8225 19.0817C92.0161 19.4702 91.1786 20.0388 90.3101 20.7876C90.2467 20.8427 90.185 20.898 90.1249 20.9534L88.4076 22.2993C88.0577 22.5631 87.726 22.8005 87.4125 23.0116C87.099 23.2152 86.8147 23.381 86.5595 23.5092C86.3116 23.6373 86.1039 23.7014 85.9362 23.7014C85.7758 23.7014 85.3238 23.3622 84.5802 22.6837C84.2375 22.3822 83.8475 21.9939 83.4101 21.519C82.9726 21.0441 82.6628 20.6371 82.4805 20.2978L86.1986 17.0978L87.4453 15.9445C87.7807 15.6354 87.9994 15.4168 88.1014 15.2886C88.9107 14.271 89.3153 13.4983 89.3153 12.9706C89.3153 12.36 88.7795 12.0547 87.7078 12.0547C87.2776 12.0547 86.8074 12.1715 86.2971 12.4052C85.794 12.6314 85.3201 12.9781 84.8754 13.4455C84.8317 13.4907 84.6713 13.6453 84.3943 13.9091L78.653 19.3367L76.8159 20.9876C76.1233 21.6057 75.7223 21.9148 75.6129 21.9148C75.3359 21.9148 75.1974 21.8281 75.1974 21.6547C75.1974 21.4512 75.4125 20.9122 75.8426 20.0378L76.5753 18.613C76.8669 18.0703 77.3845 17.1544 78.1281 15.8653C78.4052 15.4055 78.6567 15.0059 78.8827 14.6667C79.1087 14.3275 79.2217 14.0109 79.2217 13.7169C79.2217 13.2269 78.9155 12.8387 78.3031 12.5522C78.0334 12.4316 77.7308 12.3411 77.3955 12.2808C77.0601 12.2205 76.7247 12.1904 76.3894 12.1904C76.0613 12.1904 75.5692 12.6125 74.9131 13.4568C74.5996 13.8488 74.2715 14.3162 73.9288 14.8589C73.5862 15.3942 73.2508 15.9746 72.9228 16.6003C72.5947 17.226 72.2812 17.8818 71.9823 18.5678C71.6834 19.2538 71.4209 19.9473 71.1949 20.6484C70.9689 21.3419 70.7903 22.0316 70.6591 22.7176C70.5206 23.3961 70.4513 24.1688 70.4513 25.0357C70.4513 25.9026 70.5862 26.4755 70.8559 26.7544C70.907 26.8524 71.0017 26.9429 71.1403 27.0258C71.6141 27.3273 72.1062 27.4781 72.6166 27.4781C73.0905 27.4781 74.3991 26.6715 76.5425 25.0583L78.5546 23.5092C79.0139 24.2328 79.5097 24.8962 80.0419 25.4993C80.3335 25.831 80.6397 26.1476 80.9605 26.4491C81.2885 26.7431 81.6239 27.0032 81.9666 27.2293C82.3092 27.4555 82.6555 27.6364 83.0054 27.7721C83.3554 27.9078 83.7199 27.9756 84.099 27.9756C84.4781 27.9756 84.9082 27.8776 85.3894 27.6816C86.4509 27.2642 87.6163 26.5474 88.8857 25.5311C89.0098 25.8019 89.1675 26.0713 89.3589 26.3394C90.0344 27.2788 90.9546 27.7485 92.1195 27.7485C93.2292 27.7485 94.5285 27.3671 96.0173 26.6043C97.4166 25.8838 98.485 25.0927 99.2225 24.231C99.3534 24.3228 99.4879 24.4111 99.6257 24.4958C100.074 24.7572 100.673 24.8879 101.425 24.8879C102.027 24.8879 102.671 24.6972 103.358 24.316C103.348 24.5002 103.343 24.6846 103.343 24.8693C103.343 25.5207 103.645 26.1401 104.25 26.7277C104.953 27.4074 105.86 27.7472 106.972 27.7472C108.155 27.7472 109.472 27.3366 110.925 26.5153C111.215 26.348 111.526 26.1526 111.858 25.929C111.958 26.1108 112.073 26.292 112.202 26.4727C112.922 27.4748 113.902 27.9758 115.144 27.9758C116.327 27.9758 117.711 27.5689 119.298 26.7552C120.789 25.9867 121.928 25.1429 122.714 24.2237C122.854 24.3217 122.997 24.4158 123.144 24.5062C123.621 24.785 124.261 24.9244 125.061 24.9244C125.69 24.9244 126.363 24.7291 127.078 24.3384C127.12 25.1158 127.386 25.8315 127.878 26.4857C128.139 26.8292 128.456 27.1131 128.827 27.3374C129.206 27.5617 129.646 27.6739 130.148 27.6739C130.658 27.6739 131.132 27.5687 131.573 27.3584C131.814 27.2463 132.116 27.064 132.481 26.8116C132.853 26.5593 133.871 25.683 135.536 24.1829C135.612 25.0522 135.784 25.7567 136.052 26.2964C136.169 26.5418 136.3 26.7451 136.445 26.9063C136.589 27.0675 136.73 27.1972 136.868 27.2953C137.005 27.3865 137.291 27.4881 137.725 27.6003C137.903 27.6423 138.086 27.6774 138.272 27.7054C138.457 27.7335 138.653 27.7475 138.86 27.7475C139.066 27.7475 139.376 27.6563 139.789 27.4741C141.117 26.8782 142.569 25.8478 144.145 24.3827C144.778 24.7472 145.373 24.9295 145.93 24.9295C146.488 24.9295 146.969 24.8699 147.375 24.7507C147.788 24.6316 148.163 24.4773 148.5 24.2881C148.845 24.0918 149.151 23.8745 149.419 23.6362C149.693 23.3987 149.927 23.1751 150.119 22.9655C150.371 22.8243 150.631 22.6355 150.898 22.3992L151.899 21.5311C152.229 21.2558 152.505 20.9876 152.725 20.7264C152.835 20.9241 152.973 21.1252 153.138 21.3299C153.303 21.5346 153.461 21.7428 153.612 21.9546C153.999 22.4814 154.353 23.0231 154.618 23.5873C153.001 24.1225 151.026 25.0146 149.561 26.2644C148.673 27.0225 147.848 28.0186 147.518 29.2727C147.169 30.5987 147.436 31.9743 148.31 33.2872C148.727 33.9139 149.231 34.4519 149.854 34.7764C150.519 35.1223 151.228 35.1764 151.901 34.9685C153.095 34.5994 153.96 33.475 154.554 32.4874C155.269 31.299 156.133 29.105 156.852 26.9904C157.256 26.9024 157.662 26.7153 158.339 26.3272C158.672 26.135 159 25.9257 159.323 25.699C159.385 26.1515 159.491 26.4557 159.642 26.6114C159.697 26.7323 159.783 26.846 159.9 26.9526C160.306 27.3222 160.746 27.507 161.221 27.507C161.64 27.507 162.487 27.0379 163.759 26.0997L164.956 25.1828C166.326 27.045 167.715 27.9761 169.126 27.9761C169.511 27.9761 169.931 27.8837 170.385 27.6989C171.397 27.3006 172.488 26.6335 173.657 25.6976C173.786 25.9997 173.956 26.3001 174.168 26.5989C174.839 27.5398 175.753 28.0102 176.91 28.0102C178.012 28.0102 179.303 27.6282 180.782 26.8642C182.171 26.1427 183.233 25.3504 183.965 24.4874C182.887 27.0552 184.349 28.1799 184.486 28.2648C184.931 28.5266 185.526 28.6574 186.273 28.6574C186.978 28.6574 187.741 28.3922 188.563 27.8616C188.932 27.6211 189.278 27.3523 189.6 27.0552C189.922 26.751 190.202 26.4468 190.442 26.1427C190.682 25.8314 190.87 25.5379 191.007 25.262C191.144 24.979 191.212 24.7314 191.212 24.5192C191.212 24.307 191.158 24.1408 191.048 24.0205C190.938 23.9003 190.788 23.8401 190.596 23.8401C190.411 23.8401 190.192 23.9144 189.939 24.063L189.117 24.5298C188.364 24.9967 187.755 25.2301 187.289 25.2301C186.659 25.2301 186.344 25.0392 186.344 24.6572C186.344 24.5581 186.365 24.452 186.406 24.3388C186.447 24.2257 186.468 24.0665 186.468 23.8614C186.468 23.6635 186.47 23.4553 186.472 23.2399C186.498 20.8042 186.533 17.4512 183.513 17.7601C182.411 17.7601 181.172 17.983 179.796 18.4286C179.145 18.6408 178.416 18.9415 177.608 19.3305C176.807 19.7196 175.975 20.2891 175.113 21.0389C174.944 21.1866 174.788 21.3354 174.643 21.4853L173.006 22.7201C172.641 22.983 172.294 23.2211 171.964 23.4344C171.64 23.6405 171.348 23.8111 171.086 23.9461C170.825 24.074 170.643 24.138 170.539 24.138C170.443 24.138 170.323 24.1025 170.178 24.0314C169.552 23.7116 168.916 23.1607 168.269 22.3789L169.188 21.5366L170.57 20.2146C170.736 20.0441 170.859 19.909 170.942 19.8095C171.706 18.8713 172.087 18.1428 172.087 17.6239C172.087 17.0482 171.513 16.7604 170.364 16.7604C169.958 16.7604 169.48 16.8848 168.93 17.1335C168.386 17.3823 167.86 17.8372 167.351 18.4982L165.968 20.268C164.95 21.5544 164.32 22.1977 164.079 22.1977C163.818 22.1977 163.687 22.1088 163.687 21.9311C163.687 21.7534 163.759 21.4656 163.904 21.0676C163.966 20.897 164.031 20.7335 164.1 20.5771C164.169 20.4137 164.275 20.1791 164.42 19.8735C164.564 19.5679 164.812 19.1307 165.163 18.5621C165.514 17.9935 166.821 16.0034 169.084 12.5918C169.277 12.2862 169.373 12.0054 169.373 11.7496C169.373 11.4937 169.26 11.2911 169.033 11.1419C168.813 10.9926 168.541 10.918 168.218 10.918C167.626 10.918 166.89 11.2058 166.009 11.7815C164.97 12.4639 164.093 13.3381 163.378 14.4042C162.105 15.9679 161.166 17.4036 160.56 18.7114C160.175 19.543 159.862 20.4456 159.621 21.4194C159.539 21.7519 159.471 22.0927 159.417 22.4418L159.392 22.4628C159.166 22.6514 158.445 23.2338 157.892 23.6373C157.982 23.3099 158.06 23.0096 158.124 22.7445L158.125 22.7393L158.127 22.7303C158.242 22.4638 158.277 22.2231 158.277 21.9969C158.277 21.3334 157.961 20.6382 157.328 19.9112C157.066 19.6147 156.794 19.343 156.512 19.096C156.237 18.8419 156.01 18.6195 155.831 18.429C156.058 18.1396 156.172 17.8819 156.172 17.6561C156.172 17.4232 156.137 17.2361 156.069 17.0949C155.841 16.615 155.487 16.375 155.006 16.375C154.249 16.375 153.485 16.6573 152.715 17.222C151.903 17.8219 151.497 18.4819 151.497 19.2018L150.668 19.7791C150.378 19.8606 149.993 20.0913 149.512 20.4712C149.326 20.6254 149.144 20.7831 148.965 20.9443C148.786 21.0986 148.593 21.2528 148.387 21.407C148.18 21.5612 147.974 21.6944 147.768 21.8066C147.561 21.9187 147.393 21.9748 147.262 21.9748C147.138 21.9748 147.042 21.9503 146.973 21.9012C146.739 21.747 146.622 21.5612 146.622 21.3439C146.966 20.678 147.138 20.0401 147.138 19.4302C147.138 18.4698 146.673 17.9897 145.745 17.9897C145.235 17.9897 144.695 18.228 144.124 18.7047C143.869 18.922 143.632 19.1638 143.412 19.4302C143.192 19.6966 142.999 19.9629 142.834 20.2293C142.669 20.4957 142.538 20.7481 142.442 20.9864C142.352 21.2247 142.307 21.442 142.307 21.6383C142.307 21.8346 142.331 22.0274 142.38 22.2166C141.127 23.4574 140.257 24.0778 139.768 24.0778C139.121 24.0778 138.798 23.8079 138.798 23.2681C138.798 22.6583 139.183 21.74 139.954 20.5132L140.945 18.936C141.062 18.7467 141.12 18.603 141.12 18.5049C141.12 18.3997 141.076 18.2911 140.986 18.1789C140.725 17.8354 140.229 17.6637 139.5 17.6637C138.633 17.6637 137.841 18.0562 137.126 18.8414C136.486 19.5424 136.021 20.3906 135.732 21.386C134.336 22.7038 133.31 23.3628 132.656 23.3628C132.237 23.3628 132.027 23.2015 132.027 22.8791C132.027 22.4375 132.23 21.9152 132.636 21.3124C132.808 21.053 132.997 20.7971 133.204 20.5448C133.41 20.2924 133.658 19.9629 133.947 19.5564C134.236 19.1498 134.38 18.7678 134.38 18.4102C134.38 17.9967 134.194 17.6952 133.823 17.506C133.665 17.4219 133.489 17.3658 133.296 17.3377C133.104 17.3027 132.835 17.2852 132.491 17.2852C132.154 17.2852 131.745 17.3798 131.263 17.5691C129.905 18.0961 128.826 19.1 128.027 20.5806C127.259 21.0429 126.634 21.274 126.152 21.274C125.476 21.274 125.138 21.0706 125.138 20.6638C125.138 20.5583 125.16 20.4453 125.205 20.3247C125.249 20.2042 125.271 20.0346 125.271 19.8161C125.271 19.0778 125.036 18.4713 124.565 17.9966C124.367 17.7857 124.059 17.5785 123.64 17.375C123.228 17.1641 122.758 17.0586 122.229 17.0586C121.047 17.0586 119.717 17.2959 118.24 17.7706C117.542 17.9966 116.76 18.3168 115.893 18.7312C115.034 19.1456 114.141 19.7521 113.216 20.5507ZM116.114 22.8336L116.125 22.7997C116.125 22.6716 116.213 22.4946 116.389 22.2686C116.94 21.6055 117.767 20.9614 118.868 20.336C119.868 19.7709 120.661 19.4884 121.249 19.4884C120.786 20.0309 120.554 20.5733 120.554 21.1158C120.554 21.372 120.613 21.6206 120.731 21.8617C120.055 22.4268 119.298 22.8939 118.461 23.2631C118.123 23.4138 117.767 23.5419 117.392 23.6473C117.017 23.7453 116.661 23.6888 116.323 23.4778C116.183 23.3799 116.114 23.1689 116.114 22.8449V22.8336ZM93.0293 22.9278L93.0397 22.896C93.0397 22.7759 93.1224 22.6099 93.2878 22.398C93.8048 21.7764 94.5802 21.1725 95.6141 20.5863C96.5515 20.0565 97.296 19.7916 97.8474 19.7916C97.4131 20.3002 97.196 20.8088 97.196 21.3173C97.196 21.5575 97.2511 21.7906 97.3614 22.0166C96.7273 22.5463 96.0173 22.9843 95.2316 23.3304C94.9145 23.4717 94.5802 23.5917 94.2287 23.6906C93.8771 23.7824 93.5428 23.7295 93.2258 23.5317C93.0948 23.4399 93.0293 23.2421 93.0293 22.9384V22.9278ZM177.814 23.1823L177.824 23.1504C177.824 23.0302 177.906 22.8639 178.07 22.6517C178.584 22.0292 179.354 21.4244 180.381 20.8373C181.312 20.3067 182.052 20.0415 182.599 20.0415C183.325 20.4766 183.216 21.0389 182.117 22.2697C181.487 22.8003 180.782 23.2389 180.001 23.5855C179.686 23.7269 179.354 23.8472 179.005 23.9462C178.656 24.0382 178.324 23.9851 178.009 23.7871C177.879 23.6951 177.814 23.497 177.814 23.1929V23.1823ZM151.117 32.1201C151.048 32.0745 150.891 31.9438 150.671 31.6135C150.173 30.8637 150.354 28.3989 151.117 27.7482C151.536 27.2926 152.124 27.3422 152.715 27.392C153.156 27.4293 153.599 27.4666 153.974 27.2933C153.509 28.7066 153.123 29.453 152.506 30.4781C152.007 31.3065 151.26 32.0477 151.117 32.1201Z" fill="#1C1C1C"/>
  <path d="M193.431 17.8649L193.231 17.9147C192.045 18.2096 190.744 18.5331 190.058 18.896C186.295 20.8886 190.87 15.4542 193.339 14.839C194.743 14.4892 196.028 14.3483 197.474 15.114C198.177 15.4862 198.462 16.3913 198.11 17.1357C197.759 17.8801 196.904 18.1818 196.201 17.8096C195.721 17.5552 194.756 17.5347 193.431 17.8649Z" fill="#1C1C1C"/>
  <path d="M193.338 22.505L193.543 22.5323C194.903 22.7129 195.805 23.084 196.172 23.493C196.71 24.0915 197.617 24.1265 198.197 23.5711C198.776 23.0157 198.81 22.0803 198.272 21.4818C197.165 20.2506 195.907 19.9109 194.468 19.7196C191.935 19.3832 185.809 22.7042 190.02 22.2481C190.788 22.165 192.122 22.3428 193.338 22.505Z" fill="#1C1C1C"/>
</svg>