<svg width="16" height="17" viewBox="0 0 16 17" fill="none" xmlns="http://www.w3.org/2000/svg">
<mask id="mask0_3089_12155" style="mask-type:alpha" maskUnits="userSpaceOnUse" x="1" y="1" width="14" height="14">
<path fill-rule="evenodd" clip-rule="evenodd" d="M8.00016 1.3457C4.32016 1.3457 1.3335 4.33237 1.3335 8.01237C1.3335 11.6924 4.32016 14.679 8.00016 14.679C11.6802 14.679 14.6668 11.6924 14.6668 8.01237C14.6668 4.33237 11.6802 1.3457 8.00016 1.3457ZM8.00016 8.67904C7.6335 8.67904 7.3335 8.37904 7.3335 8.01237V5.3457C7.3335 4.97904 7.6335 4.67904 8.00016 4.67904C8.36683 4.67904 8.66683 4.97904 8.66683 5.3457V8.01237C8.66683 8.37904 8.36683 8.67904 8.00016 8.67904ZM7.3335 10.0124V11.3457H8.66683V10.0124H7.3335Z" fill="black"/>
</mask>
<g mask="url(#mask0_3089_12155)">
<rect y="0.0117188" width="16" height="16" fill="#EA3A3D"/>
</g>
</svg>
