<svg xmlns="http://www.w3.org/2000/svg" width="200" height="36" viewBox="0 0 200 36" fill="none">
  <path d="M169.126 27.9761C167.715 27.9761 166.325 27.045 164.956 25.1828L163.759 26.0997C162.486 27.0379 161.64 27.507 161.221 27.507C160.746 27.507 160.306 27.3222 159.9 26.9526C159.783 26.846 159.697 26.7323 159.642 26.6114C159.387 26.3485 159.26 25.6626 159.26 24.5538C159.26 23.4379 159.38 22.3931 159.621 21.4194C159.862 20.4456 160.175 19.543 160.56 18.7114C161.165 17.4036 162.105 15.9679 163.377 14.4042C164.093 13.3381 164.97 12.4639 166.009 11.7815C166.89 11.2058 167.626 10.918 168.217 10.918C168.541 10.918 168.812 10.9926 169.033 11.1419C169.26 11.2911 169.373 11.4937 169.373 11.7496C169.373 12.0054 169.277 12.2862 169.084 12.5918C166.821 16.0034 165.514 17.9935 165.163 18.5621C164.812 19.1307 164.564 19.5679 164.42 19.8735C164.275 20.1791 164.169 20.4137 164.1 20.5771C164.031 20.7335 163.966 20.897 163.904 21.0676C163.759 21.4656 163.687 21.7534 163.687 21.9311C163.687 22.1088 163.818 22.1977 164.079 22.1977C164.32 22.1977 164.949 21.5544 165.968 20.268L167.351 18.4982C167.86 17.8372 168.386 17.3823 168.929 17.1335C169.48 16.8848 169.958 16.7604 170.364 16.7604C171.513 16.7604 172.087 17.0482 172.087 17.6239C172.087 18.1428 171.705 18.8713 170.942 19.8095C170.859 19.909 170.735 20.0441 170.57 20.2146L169.187 21.5366L168.269 22.3789C168.916 23.1607 169.552 23.7116 170.178 24.0314C170.323 24.1025 170.443 24.138 170.539 24.138C170.643 24.138 170.825 24.074 171.086 23.9461C171.348 23.8111 171.64 23.6405 171.963 23.4344C172.294 23.2211 172.641 22.983 173.006 22.7201L175.833 20.5878C176.081 20.3888 176.329 20.2893 176.576 20.2893C177.092 20.2893 177.35 20.5096 177.35 20.9503C177.35 21.526 177.079 22.1977 176.535 22.9653C176.37 23.1927 176.212 23.3846 176.06 23.541L175.4 24.1593C173.556 25.9291 171.884 27.109 170.385 27.6989C169.93 27.8837 169.511 27.9761 169.126 27.9761Z" fill="#1C1C1C"/>
  <path d="M156.068 17.0949C156.137 17.2361 156.172 17.4232 156.172 17.6561C156.172 17.8819 156.058 18.1396 155.831 18.429C156.01 18.6195 156.237 18.8419 156.512 19.096C156.794 19.343 157.066 19.6147 157.327 19.9112C157.96 20.6382 158.277 21.3334 158.277 21.9969C158.277 22.4345 158.144 22.9264 157.56 23.5546C156.256 24.9944 158.917 22.8592 159.391 22.4628L160.599 21.4464C161.301 20.8464 161.769 20.5006 162.002 20.4088C162.243 20.317 162.46 20.2712 162.653 20.2712C162.845 20.2712 163.031 20.3206 163.21 20.4194C163.396 20.5182 163.489 20.6805 163.489 20.9064C163.489 21.1252 163.454 21.3405 163.385 21.5522C163.317 21.7569 163.234 21.9475 163.138 22.124C163 22.3781 162.801 22.6392 162.539 22.9074C161.817 23.6062 161.115 24.2485 160.434 24.8343C159.76 25.4131 159.061 25.9107 158.339 26.3272C156.811 27.2024 156.665 27.0555 154.808 27.0555C155.565 25.1125 154.726 23.4715 153.612 21.9546C153.461 21.7428 153.303 21.5346 153.137 21.3299C152.972 21.1252 152.835 20.9241 152.725 20.7264C152.505 20.9876 152.229 21.2558 151.899 21.5311L150.898 22.3992C150.203 23.0133 149.56 23.3062 148.968 23.278C148.624 23.2497 148.452 22.858 148.452 22.1028C148.452 21.9687 148.462 21.8381 148.483 21.711C148.518 21.4922 148.727 21.2276 149.113 20.917C149.498 20.6064 149.777 20.3947 149.949 20.2817C150.127 20.1618 150.279 20.0559 150.403 19.9641L151.497 19.2018C151.497 18.4819 151.903 17.8219 152.714 17.222C153.485 16.6573 154.249 16.375 155.005 16.375C155.487 16.375 155.841 16.615 156.068 17.0949Z" fill="#1C1C1C"/>
  <path d="M148.5 24.2881C148.163 24.4773 147.788 24.6316 147.375 24.7507C146.969 24.8699 146.488 24.9295 145.93 24.9295C145.373 24.9295 144.778 24.7472 144.145 24.3827C142.569 25.8478 141.117 26.8782 139.789 27.4741C139.376 27.6563 139.066 27.7475 138.86 27.7475C138.653 27.7475 138.457 27.7335 138.271 27.7054C138.086 27.6774 137.903 27.6423 137.724 27.6003C137.291 27.4881 137.005 27.3865 136.868 27.2953C136.73 27.1972 136.589 27.0675 136.444 26.9063C136.3 26.7451 136.169 26.5418 136.052 26.2964C135.784 25.7567 135.612 25.0522 135.536 24.1829C133.871 25.683 132.852 26.5593 132.481 26.8116C132.116 27.064 131.813 27.2463 131.573 27.3584C131.132 27.5687 130.657 27.6739 130.148 27.6739C129.646 27.6739 129.205 27.5617 128.827 27.3374C128.455 27.1131 128.139 26.8292 127.877 26.4857C127.341 25.7707 127.072 24.9821 127.072 24.1198C127.072 23.0333 127.341 21.9503 127.877 20.8707C128.689 19.2304 129.818 18.1299 131.263 17.5691C131.745 17.3798 132.154 17.2852 132.491 17.2852C132.835 17.2852 133.104 17.3027 133.296 17.3377C133.489 17.3658 133.664 17.4218 133.823 17.506C134.194 17.6952 134.38 17.9967 134.38 18.4102C134.38 18.7678 134.236 19.1498 133.947 19.5564C133.658 19.9629 133.41 20.2924 133.203 20.5448C132.997 20.7971 132.808 21.053 132.636 21.3124C132.23 21.9152 132.027 22.4375 132.027 22.8791C132.027 23.2015 132.237 23.3628 132.656 23.3628C133.31 23.3628 134.335 22.7038 135.732 21.386C136.021 20.3906 136.486 19.5424 137.126 18.8414C137.841 18.0562 138.633 17.6637 139.5 17.6637C140.229 17.6637 140.725 17.8354 140.986 18.1789C141.075 18.2911 141.12 18.3997 141.12 18.5049C141.12 18.603 141.062 18.7467 140.945 18.936L139.954 20.5132C139.183 21.74 138.798 22.6583 138.798 23.2681C138.798 23.8079 139.121 24.0778 139.768 24.0778C140.257 24.0778 141.127 23.4574 142.379 22.2166C142.331 22.0274 142.307 21.8346 142.307 21.6383C142.307 21.442 142.352 21.2247 142.441 20.9864C142.538 20.7481 142.668 20.4957 142.834 20.2293C142.999 19.9629 143.191 19.6966 143.412 19.4302C143.632 19.1638 143.869 18.922 144.124 18.7047C144.695 18.228 145.235 17.9897 145.744 17.9897C146.673 17.9897 147.138 18.4698 147.138 19.4302C147.138 20.0401 146.966 20.678 146.622 21.3439C146.622 21.5612 146.739 21.747 146.973 21.9012C147.041 21.9503 147.138 21.9748 147.262 21.9748C147.392 21.9748 147.561 21.9187 147.767 21.8066C147.974 21.6944 148.18 21.5612 148.387 21.407C148.593 21.2528 148.786 21.0986 148.965 20.9443C149.144 20.7831 149.326 20.6254 149.512 20.4712C150.124 19.9875 150.582 19.7456 150.885 19.7456C151.091 19.7456 151.26 19.8087 151.39 19.9349C151.624 20.1522 151.741 20.3169 151.741 20.4291C151.741 20.5413 151.714 20.6569 151.659 20.7761C151.604 20.8953 151.531 21.032 151.442 21.1862C151.353 21.3334 151.249 21.4876 151.132 21.6488C150.658 22.3078 150.32 22.7459 150.121 22.9632C149.928 23.1735 149.694 23.3978 149.419 23.6361C149.151 23.8745 148.844 24.0918 148.5 24.2881Z" fill="#1C1C1C"/>
  <path d="M125.138 20.6638C125.138 21.0706 125.476 21.274 126.152 21.274C126.652 21.274 127.305 21.0254 128.114 20.5281L128.995 20.0309C129.267 19.8727 129.502 19.7935 129.7 19.7935C129.906 19.7935 130.068 19.8576 130.185 19.9857C130.303 20.1138 130.361 20.2908 130.361 20.5168C130.361 20.7429 130.288 21.0066 130.141 21.3079C129.994 21.6018 129.792 21.9144 129.535 22.246C129.278 22.5699 128.977 22.8939 128.631 23.2179C128.286 23.5343 127.915 23.8206 127.518 24.0768C126.637 24.6419 125.818 24.9244 125.061 24.9244C124.26 24.9244 123.621 24.785 123.144 24.5062C122.997 24.4158 122.854 24.3217 122.714 24.2237C121.928 25.1429 120.789 25.9867 119.298 26.7552C117.711 27.5689 116.326 27.9758 115.144 27.9758C113.902 27.9758 112.922 27.4748 112.202 26.4727C111.621 25.659 111.331 24.834 111.331 23.9977C111.331 22.7922 111.959 21.6432 113.215 20.5507C114.141 19.7521 115.034 19.1456 115.893 18.7312C116.76 18.3168 117.542 17.9966 118.24 17.7706C119.717 17.2959 121.046 17.0586 122.229 17.0586C122.758 17.0586 123.228 17.1641 123.64 17.375C124.058 17.5785 124.367 17.7857 124.565 17.9966C125.035 18.4713 125.271 19.0778 125.271 19.8161C125.271 20.0346 125.249 20.2042 125.204 20.3247C125.16 20.4453 125.138 20.5583 125.138 20.6638ZM116.124 22.7997L116.113 22.8336V22.8449C116.113 23.1689 116.183 23.3799 116.323 23.4778C116.661 23.6888 117.017 23.7453 117.392 23.6473C117.766 23.5419 118.123 23.4138 118.461 23.2631C119.298 22.8939 120.055 22.4268 120.731 21.8617C120.613 21.6206 120.554 21.372 120.554 21.1158C120.554 20.5733 120.786 20.0309 121.248 19.4884C120.661 19.4884 119.867 19.7709 118.868 20.336C117.766 20.9614 116.94 21.6055 116.389 22.2686C116.213 22.4946 116.124 22.6716 116.124 22.7997Z" fill="#1C1C1C"/>
  <path d="M115.712 20.0907C116.394 20.0907 116.735 20.3314 116.735 20.8128C116.735 21.2729 116.415 21.8676 115.775 22.5968L115.264 23.1384C114.645 23.7826 113.922 24.4163 113.095 25.0393C112.274 25.6623 111.551 26.1543 110.925 26.5153C109.472 27.3366 108.154 27.7472 106.972 27.7472C105.86 27.7472 104.952 27.4074 104.25 26.7277C103.645 26.1401 103.343 25.5207 103.343 24.8693C103.343 24.218 103.405 23.5703 103.531 22.926C103.656 22.2818 103.819 21.6517 104.021 21.0358C104.424 19.7827 104.866 18.7172 105.345 17.8394C105.47 17.5987 106.033 16.5049 106.033 16.4341C107.09 14.4766 106.144 16.3208 106.774 15.0783C106.83 15.0571 106.756 15.1314 106.923 14.8483L109.163 11.2235C109.434 10.728 109.705 10.3634 109.976 10.1297C110.254 9.89611 110.578 9.7793 110.946 9.7793C111.322 9.7793 111.634 9.81469 111.885 9.88549C112.142 9.95629 112.358 10.0448 112.531 10.151C112.872 10.3775 113.042 10.6253 113.042 10.8943C113.042 11.0076 113.004 11.1598 112.928 11.351L110.925 15.0783C110.466 16.1934 111.084 14.7031 110.372 16.2075C110.289 16.25 109.656 17.6199 109.455 17.988L108.985 18.8694C108.867 19.0889 108.784 19.2553 108.735 19.3685L108.505 19.8889C108.04 20.9579 107.807 21.7296 107.807 22.2039C107.807 22.6782 107.928 23.0747 108.172 23.3933C108.422 23.7118 108.752 23.8711 109.163 23.8711C109.573 23.8711 109.973 23.7897 110.362 23.6269C110.758 23.4641 111.144 23.2658 111.52 23.0322C112.201 22.6004 112.736 22.2004 113.126 21.8322C113.515 21.4641 113.839 21.1844 114.096 20.9933C114.096 20.9933 114.339 20.8198 114.826 20.473C115.201 20.2181 115.497 20.0907 115.712 20.0907Z" fill="#1C1C1C"/>
  <path d="M101.497 20.8935C101.497 21.2749 101.814 21.4656 102.448 21.4656C102.917 21.4656 103.53 21.2326 104.289 20.7664L105.116 20.3002C105.371 20.1519 105.591 20.0777 105.777 20.0777C105.97 20.0777 106.122 20.1377 106.232 20.2578C106.343 20.3779 106.398 20.5439 106.398 20.7558C106.398 20.9677 106.329 21.2149 106.191 21.4974C106.053 21.7729 105.864 22.066 105.622 22.3768C105.381 22.6806 105.098 22.9843 104.774 23.288C104.45 23.5847 104.102 23.8531 103.73 24.0932C102.903 24.623 102.135 24.8879 101.425 24.8879C100.673 24.8879 100.074 24.7572 99.6256 24.4958C99.4877 24.4111 99.3533 24.3228 99.2223 24.231C98.4848 25.0927 97.4164 25.8838 96.0172 26.6043C94.5284 27.3671 93.2291 27.7485 92.1193 27.7485C90.9545 27.7485 90.0343 27.2788 89.3588 26.3394C88.8143 25.5765 88.542 24.8031 88.542 24.0191C88.542 22.8889 89.1313 21.8118 90.31 20.7876C91.1785 20.0388 92.0159 19.4702 92.8224 19.0817C93.6357 18.6933 94.3698 18.3931 95.0246 18.1812C96.4101 17.7362 97.6577 17.5137 98.7674 17.5137C99.2637 17.5137 99.7048 17.6126 100.091 17.8103C100.484 18.001 100.773 18.1953 100.959 18.3931C101.4 18.8381 101.621 19.4067 101.621 20.0989C101.621 20.3037 101.6 20.4626 101.559 20.5757C101.518 20.6887 101.497 20.7946 101.497 20.8935ZM93.0395 22.896L93.0292 22.9278V22.9384C93.0292 23.2421 93.0947 23.4399 93.2256 23.5317C93.5427 23.7295 93.877 23.7824 94.2285 23.6906C94.5801 23.5917 94.9144 23.4717 95.2314 23.3304C96.0172 22.9843 96.7272 22.5463 97.3613 22.0166C97.251 21.7906 97.1959 21.5575 97.1959 21.3173C97.1959 20.8087 97.413 20.3002 97.8472 19.7916C97.2958 19.7916 96.5514 20.0565 95.614 20.5863C94.5801 21.1725 93.8046 21.7764 93.2877 22.398C93.1222 22.6099 93.0395 22.7759 93.0395 22.896Z" fill="#1C1C1C"/>
  <path d="M61.0122 24.1565C61.0122 24.5863 61.3644 24.8012 62.0689 24.8012C62.5896 24.8012 63.7134 24.3355 64.4815 22.9509L65.0323 23.4881C65.3156 23.3209 65.5606 23.2374 65.7674 23.2374C65.9818 23.2374 66.1502 23.305 66.2728 23.4403C66.3953 23.5756 66.4565 23.7626 66.4565 24.0014C66.4565 24.2401 66.38 24.5186 66.2268 24.837C66.0737 25.1473 65.8631 25.4776 65.5951 25.8277C65.3271 26.1699 65.0131 26.5121 64.6532 26.8543C64.2934 27.1886 63.9067 27.491 63.4932 27.7616C62.5743 28.3584 61.7205 28.6568 60.9318 28.6568C60.0972 28.6568 59.431 28.5096 58.9332 28.2152C58.7801 28.1197 57.1453 26.8543 58.3513 23.9656C57.532 24.9364 56.3451 25.8277 54.7907 26.6395C53.1367 27.4989 51.6933 27.9287 50.4605 27.9287C49.1664 27.9287 48.1441 27.3995 47.3937 26.341C46.7888 25.4816 46.4863 24.6102 46.4863 23.7268C46.4863 22.4535 47.141 21.2399 48.4504 20.086C49.4152 19.2424 50.3456 18.6018 51.2415 18.1641C52.1451 17.7264 52.9606 17.3882 53.688 17.1494C55.2271 16.6481 56.6131 16.3974 57.8459 16.3974C61.5219 16.0191 61.15 20.5212 61.15 23.2613C61.15 23.492 61.1271 23.6711 61.0811 23.7984C61.0352 23.9258 61.0122 24.0451 61.0122 24.1565ZM51.4827 22.4615L51.4712 22.4973V22.5092C51.4712 22.8514 51.544 23.0742 51.6895 23.1777C52.0417 23.4005 52.4131 23.4602 52.8036 23.3568C53.1941 23.2453 53.5655 23.1101 53.9177 22.9509C54.7907 22.5609 55.5794 22.0675 56.2838 21.4707C57.5128 20.086 57.6353 19.4534 56.8237 18.9639C56.2111 18.9639 55.3841 19.2623 54.3427 19.8592C53.1941 20.5197 52.3327 21.2001 51.7584 21.9004C51.5746 22.1392 51.4827 22.3262 51.4827 22.4615Z" fill="#1C1C1C"/>
  <path d="M186.344 24.6572C186.344 25.0392 186.659 25.2301 187.289 25.2301C187.755 25.2301 188.364 24.9967 189.117 24.5298L189.939 24.063C190.192 23.9144 190.411 23.8401 190.596 23.8401C190.788 23.8401 190.938 23.9003 191.048 24.0205C191.157 24.1408 191.212 24.307 191.212 24.5192C191.212 24.7314 191.144 24.979 191.007 25.262C190.87 25.5379 190.682 25.8314 190.442 26.1427C190.202 26.4468 189.922 26.751 189.6 27.0552C189.278 27.3523 188.932 27.6211 188.563 27.8616C187.741 28.3922 186.978 28.6574 186.272 28.6574C185.526 28.6574 184.93 28.5266 184.485 28.2648C184.349 28.1799 182.887 27.0552 183.965 24.4874C183.233 25.3504 182.171 26.1427 180.781 26.8642C179.303 27.6282 178.012 28.0102 176.91 28.0102C175.753 28.0102 174.839 27.5398 174.168 26.5989C173.627 25.835 173.356 25.0604 173.356 24.2752C173.356 23.1434 173.942 22.0646 175.113 21.0389C175.975 20.2891 176.807 19.7196 177.608 19.3305C178.416 18.9415 179.145 18.6408 179.796 18.4286C181.172 17.983 182.411 17.7601 183.513 17.7601C186.8 17.4238 186.468 21.4257 186.468 23.8614C186.468 24.0665 186.447 24.2257 186.406 24.3388C186.365 24.452 186.344 24.5581 186.344 24.6572ZM177.824 23.1504L177.814 23.1823V23.1929C177.814 23.497 177.879 23.6951 178.009 23.7871C178.324 23.9851 178.656 24.0382 179.005 23.9462C179.354 23.8472 179.686 23.7269 180.001 23.5855C180.781 23.2389 181.487 22.8003 182.117 22.2697C183.215 21.0389 183.325 20.4766 182.599 20.0415C182.052 20.0415 181.312 20.3067 180.381 20.8373C179.354 21.4244 178.584 22.0292 178.07 22.6517C177.906 22.8639 177.824 23.0302 177.824 23.1504Z" fill="#1C1C1C"/>
  <path d="M87.7076 12.0547C88.7793 12.0547 89.3152 12.36 89.3152 12.9706C89.3152 13.4983 88.9105 14.271 88.1013 15.2886C87.9992 15.4168 87.7805 15.6354 87.4452 15.9445L86.1985 17.0978L82.4804 20.2978C82.6626 20.6371 82.9725 21.0441 83.4099 21.519C83.8473 21.994 84.2374 22.3822 84.58 22.6837C85.3236 23.3622 85.7757 23.7014 85.936 23.7014C86.1037 23.7014 86.3115 23.6373 86.5594 23.5092C86.8145 23.381 87.0989 23.2152 87.4124 23.0116C87.7258 22.8005 88.0576 22.5631 88.4075 22.2993L91.1633 20.1395C91.4257 19.9285 91.6882 19.8229 91.9506 19.8229C92.4974 19.8229 92.7708 20.0566 92.7708 20.524C92.7708 21.1346 92.4828 21.847 91.9069 22.6611C91.7319 22.9023 91.5643 23.1059 91.4039 23.2717L90.7149 23.9275C88.7173 25.8196 86.9421 27.071 85.3893 27.6816C84.9081 27.8776 84.478 27.9756 84.0989 27.9756C83.7198 27.9756 83.3552 27.9078 83.0053 27.7721C82.6554 27.6364 82.3091 27.4555 81.9664 27.2293C81.6238 27.0032 81.2884 26.7431 80.9603 26.4491C80.6395 26.1476 80.3333 25.831 80.0417 25.4993C79.5095 24.8962 79.0138 24.2328 78.5545 23.5092L76.5423 25.0583C74.3989 26.6715 73.0903 27.4781 72.6164 27.4781C72.1061 27.4781 71.614 27.3273 71.1401 27.0258C71.0016 26.9429 70.9068 26.8524 70.8558 26.7544C70.586 26.4755 70.4512 25.9026 70.4512 25.0357C70.4512 24.1688 70.5204 23.3961 70.6589 22.7176C70.7902 22.0316 70.9688 21.3419 71.1948 20.6484C71.4208 19.9473 71.6833 19.2538 71.9822 18.5678C72.2811 17.8818 72.5946 17.226 72.9226 16.6003C73.2507 15.9746 73.5861 15.3942 73.9287 14.8589C74.2714 14.3162 74.5994 13.8488 74.9129 13.4568C75.5691 12.6125 76.0612 12.1904 76.3892 12.1904C76.7246 12.1904 77.0599 12.2205 77.3953 12.2808C77.7307 12.3411 78.0332 12.4316 78.303 12.5522C78.9154 12.8387 79.2216 13.2269 79.2216 13.7169C79.2216 14.0109 79.1086 14.3275 78.8826 14.6667C78.6566 15.0059 78.405 15.4055 78.128 15.8653C77.3844 17.1544 76.8667 18.0703 76.5751 18.613L75.8424 20.0378C75.4123 20.9122 75.1972 21.4512 75.1972 21.6547C75.1972 21.8281 75.3358 21.9148 75.6128 21.9148C75.7222 21.9148 76.1231 21.6057 76.8157 20.9876L78.6529 19.3367L84.3941 13.9091C84.6712 13.6453 84.8315 13.4907 84.8753 13.4455C85.32 12.9781 85.7939 12.6314 86.2969 12.4052C86.8073 12.1715 87.2775 12.0547 87.7076 12.0547Z" fill="#1C1C1C"/>
  <path d="M47.4749 24.6688C47.1377 24.8622 46.7627 25.0198 46.3498 25.1415C45.9438 25.2633 45.4622 25.3242 44.9048 25.3242C44.3474 25.3242 43.7522 25.138 43.1191 24.7655C41.5433 26.2624 40.0914 27.3153 38.7633 27.9241C38.3505 28.1103 38.0408 28.2034 37.8344 28.2034C37.6279 28.2034 37.4318 28.1891 37.246 28.1605C37.0602 28.1318 36.8779 28.096 36.699 28.053C36.2654 27.9384 35.9799 27.8346 35.8423 27.7415C35.7046 27.6412 35.5636 27.5087 35.4191 27.344C35.2746 27.1792 35.1438 26.9715 35.0268 26.7208C34.7585 26.1693 34.5864 25.4495 34.5107 24.5614C32.8455 26.0941 31.8271 26.9894 31.4555 27.2473C31.0908 27.5051 30.788 27.6913 30.5472 27.8059C30.1068 28.0208 29.632 28.1282 29.1228 28.1282C28.6204 28.1282 28.18 28.0136 27.8016 27.7844C27.43 27.5552 27.1135 27.2652 26.852 26.9142C26.3152 26.1837 26.0469 25.3779 26.0469 24.4969C26.0469 23.3868 26.3152 22.2802 26.852 21.1772C27.664 19.5012 28.7925 18.3767 30.2375 17.8037C30.7192 17.6104 31.1286 17.5137 31.4658 17.5137C31.8099 17.5137 32.0782 17.5316 32.2709 17.5674C32.4636 17.596 32.6391 17.6533 32.7973 17.7393C33.1689 17.9327 33.3547 18.2406 33.3547 18.6632C33.3547 19.0285 33.2102 19.4188 32.9212 19.8343C32.6322 20.2497 32.3845 20.5863 32.178 20.8441C31.9716 21.102 31.7823 21.3634 31.6103 21.6284C31.2043 22.2444 31.0013 22.778 31.0013 23.2292C31.0013 23.5587 31.2112 23.7234 31.631 23.7234C32.2847 23.7234 33.31 23.0501 34.7069 21.7036C34.9959 20.6866 35.4603 19.8199 36.1003 19.1037C36.8159 18.3015 37.6073 17.9004 38.4743 17.9004C39.2037 17.9004 39.6992 18.0759 39.9607 18.4269C40.0501 18.5415 40.0948 18.6525 40.0948 18.7599C40.0948 18.8602 40.0363 19.007 39.9194 19.2004L38.9285 20.8119C38.1578 22.0653 37.7724 23.0036 37.7724 23.6267C37.7724 24.1782 38.0958 24.454 38.7427 24.454C39.2312 24.454 40.1017 23.8201 41.3541 22.5524C41.3059 22.359 41.2818 22.162 41.2818 21.9615C41.2818 21.7609 41.3266 21.5389 41.416 21.2954C41.5124 21.0519 41.6431 20.794 41.8082 20.5218C41.9734 20.2497 42.1661 19.9775 42.3863 19.7053C42.6065 19.4332 42.8439 19.1861 43.0985 18.964C43.6696 18.477 44.2098 18.2335 44.719 18.2335C45.648 18.2335 46.1124 18.7241 46.1124 19.7053C46.1124 20.3285 45.9404 20.9802 45.5963 21.6607C45.5963 21.8827 45.7133 22.0725 45.9473 22.2301C46.0161 22.2802 46.1124 22.3053 46.2363 22.3053C46.367 22.3053 46.5356 22.248 46.7421 22.1334C46.9485 22.0188 47.1549 21.8827 47.3614 21.7251C47.5678 21.5675 47.7605 21.41 47.9394 21.2524C48.1183 21.0877 48.3007 20.9265 48.4864 20.7689C49.0989 20.2747 49.5565 20.0276 49.8592 20.0276C50.0657 20.0276 50.2343 20.0921 50.365 20.221C50.599 20.4431 50.716 20.6114 50.716 20.726C50.716 20.8406 50.6884 20.9587 50.6334 21.0805C50.5783 21.2023 50.5061 21.3419 50.4166 21.4995C50.3272 21.6499 50.2239 21.8075 50.107 21.9722C49.6322 22.6455 49.295 23.0931 49.0954 23.3151C48.9028 23.53 48.6688 23.7592 48.3936 24.0027C48.1252 24.2462 47.819 24.4683 47.4749 24.6688Z" fill="#1C1C1C"/>
  <path d="M11.1842 28.5895C10.6752 28.3278 10.2753 28.0008 9.98448 27.6083C9.70025 27.2159 9.51187 26.8465 9.41933 26.5002C7.20101 18.6353 18.3591 13.9139 22.9829 13.3876C24.1727 13.2568 25.0353 13.1914 25.5707 13.1914C26.1127 13.1914 26.4961 13.2914 26.7209 13.4915C26.9522 13.6916 27.0877 13.9917 27.1274 14.3919C27.1736 14.7843 27.1108 15.1152 26.939 15.3845C26.7671 15.6539 26.5226 15.8693 26.2053 16.0309C25.617 16.331 24.8139 16.4811 23.796 16.4811C23.049 16.4811 22.3682 16.3503 21.7535 16.0886C21.5882 16.0117 21.4593 15.9309 21.3668 15.8462C17.0273 16.8351 14.0891 20.4825 14.4958 23.9147C14.5222 24.1301 14.5982 24.3186 14.7238 24.4802C14.8494 24.6418 15.018 24.7842 15.2295 24.9073C15.6261 25.1228 16.1086 25.2613 16.677 25.3229C17.2521 25.3767 17.8073 25.4037 18.3428 25.4037C18.8848 25.4037 19.4631 25.3537 20.0779 25.2536C20.6992 25.1459 21.2776 25.0112 21.813 24.8496C22.355 24.688 22.8507 24.5187 23.3002 24.3417C23.7563 24.1571 24.1529 23.9839 24.49 23.8223L26.8108 22.4617C27.0223 22.354 27.214 22.3001 27.3859 22.3001C27.842 22.3001 28.0998 22.581 28.1592 23.1427C28.2386 23.9046 25.9971 25.7307 24.4503 26.6849C22.3814 27.97 20.0944 28.8088 17.5892 29.2012C17.0075 29.2936 16.3069 29.3398 15.4873 29.3398C14.6742 29.3398 13.881 29.2782 13.1077 29.1551C12.3343 29.032 11.6931 28.8434 11.1842 28.5895Z" fill="#1C1C1C"/>
  <path fill-rule="evenodd" clip-rule="evenodd" d="M141.508 14.5397C130.854 14.531 115.136 14.6488 92.9143 15.9683C92.2312 16.0088 91.2987 15.906 91.2561 15.0575C91.2134 14.209 92.3844 13.9761 93.3135 13.9209C115.563 12.5999 130.769 11.4548 141.474 11.4635C152.135 11.4723 156.693 12.1806 158.688 12.6101C159.364 12.7556 160.962 13.2796 160.855 14.1165C160.747 14.9534 159.847 14.5397 159.205 14.4627C150.566 13.8747 152.204 14.5485 141.508 14.5397Z" fill="#1C1C1C"/>
  <path fill-rule="evenodd" clip-rule="evenodd" d="M18.5904 22.4641C11.329 23.1303 0.656034 26.1645 0.365129 24.669C0.059879 23.0997 7.70131 20.5299 18.0737 19.5784C21.9599 19.2218 23.7367 19.7307 24.534 20.0655C25.1925 20.342 26.2003 21.2169 25.0258 21.7864C24.3264 21.4928 22.4892 22.1064 18.5904 22.4641Z" fill="#1C1C1C"/>
  <path fill-rule="evenodd" clip-rule="evenodd" d="M156.252 24.451C156.612 24.8175 158.245 22.238 158.123 22.7445C157.55 25.1327 155.819 30.3845 154.554 32.4874C153.96 33.475 153.095 34.5994 151.901 34.9685C151.228 35.1764 150.519 35.1223 149.854 34.7764C149.23 34.4519 148.727 33.9139 148.31 33.2872C147.436 31.9743 147.169 30.5987 147.518 29.2727C147.847 28.0186 148.673 27.0225 149.561 26.2644C151.328 24.7562 153.84 23.7689 155.567 23.3011C156.056 23.1687 155.892 24.0845 156.252 24.451ZM150.671 31.6135C150.891 31.9438 151.048 32.0745 151.117 32.1201C151.26 32.0477 152.007 31.3065 152.506 30.4781C153.122 29.453 153.509 28.7066 153.974 27.2933C153.097 27.6985 151.849 26.9522 151.117 27.7482C150.354 28.3989 150.172 30.8637 150.671 31.6135Z" fill="#1C1C1C"/>
  <path fill-rule="evenodd" clip-rule="evenodd" d="M63.3367 2.95849C63.755 2.93677 64.1553 3.15927 64.4051 3.55236C77.6701 32.7436 56.3407 29.1109 60.3193 27.7486C59.7989 27.2069 63.4015 24.5671 63.8647 23.9585C66.3451 21.008 66.1746 17.9335 65.6445 14.2704C65.2563 11.5881 64.2669 7.39754 63.3367 5.49841L61.8478 10.197C61.5468 10.7707 60.9519 11.0334 60.4017 10.8354C59.5921 10.5441 58.5121 10.4633 57.4215 10.5137C56.3482 10.5632 55.3705 10.7341 54.8224 10.869C54.2263 11.0158 53.6257 10.6434 53.395 9.98399L52.234 5.49841C49.1732 8.25885 47.8966 13.0782 47.6616 16.2624C47.4311 17.0312 45.7345 16.9868 45.0771 16.7172C44.4197 16.4477 43.9532 15.078 44.1837 14.3092C44.6517 12.7484 45.2803 11.4588 46.615 9.08719C47.9369 6.73823 50.0145 4.47314 52.234 3.12342C52.5485 2.93213 52.9174 2.90448 53.2502 3.04722C53.5831 3.18997 53.8492 3.48995 53.9835 3.8737L55.3473 7.77265C55.9253 7.67842 56.6061 7.59855 57.3219 7.56549C58.2137 7.5243 59.2199 7.55243 60.1733 7.74712L62.3174 3.6607C62.5365 3.24329 62.9183 2.9802 63.3367 2.95849Z" fill="#1C1C1C"/>
  <path fill-rule="evenodd" clip-rule="evenodd" d="M33.5646 12.7367C35.0116 12.6145 37.4355 12.3335 38.7234 12.3657C41.4394 12.4336 43.3382 12.4091 46.1341 13.2389C46.9202 13.3232 47.4997 14.6775 47.4187 15.495C47.3376 16.3126 46.6347 16.907 45.8486 16.8227C44.097 16.6349 41.0498 15.4027 38.4258 15.337C37.1129 15.3042 35.9271 15.268 34.8711 15.337C33.4787 15.4281 31.9954 15.7354 30.6363 15.7568C30.5012 15.759 30.271 15.7496 30.0159 15.6534C29.738 15.5485 29.3608 15.3081 29.1498 14.8284C28.9513 14.3773 29.0111 13.9632 29.0707 13.7394C29.131 13.5133 29.2264 13.3405 29.289 13.2389C29.5082 12.8831 29.862 12.5609 30.0862 12.3657C31.7916 10.881 32.5129 8.19619 31.7388 5.98881C31.3834 4.97524 30.7991 4.16846 30.0159 3.65222C29.2422 3.14219 28.1639 2.84243 26.6844 3.03475C24.77 3.28359 23.6189 4.36582 23.2804 5.24275C23.12 5.65814 23.1414 5.99848 23.2649 6.26971C23.3917 6.54835 23.7156 6.94609 24.5048 7.27293C25.2389 7.57701 25.5971 8.44251 25.3047 9.20608C24.2625 11.928 21.1135 10.3027 20.4531 8.01318C19.9402 6.88658 20.2119 5.20294 20.6247 4.13374C21.4325 2.04149 23.6201 0.433577 26.3295 0.0813988C28.3716 -0.18405 30.1364 0.207864 31.5479 1.13832C32.95 2.06257 33.8929 3.4451 34.4273 4.969C35.2709 7.37463 34.6014 10.2821 33.5646 12.7367Z" fill="#1C1C1C"/>
  <path fill-rule="evenodd" clip-rule="evenodd" d="M193.431 17.8649C192.194 18.1731 190.783 18.5125 190.058 18.896C186.295 20.8886 190.87 15.4542 193.339 14.839C194.743 14.4892 196.028 14.3483 197.474 15.114C198.177 15.4862 198.462 16.3913 198.11 17.1357C197.759 17.8801 196.904 18.1818 196.201 17.8096C195.721 17.5552 194.756 17.5347 193.431 17.8649Z" fill="#1C1C1C"/>
  <path fill-rule="evenodd" clip-rule="evenodd" d="M193.543 22.5323C192.274 22.3638 190.831 22.1603 190.02 22.2481C185.808 22.7042 191.935 19.3832 194.467 19.7196C195.907 19.9109 197.165 20.2506 198.272 21.4818C198.81 22.0803 198.776 23.0157 198.196 23.5711C197.617 24.1265 196.71 24.0915 196.172 23.493C195.804 23.084 194.902 22.7129 193.543 22.5323Z" fill="#1C1C1C"/>
</svg>