<svg xmlns="http://www.w3.org/2000/svg" width="19" height="19" viewBox="0 0 19 19" fill="none">
<path d="M14.5508 2.36328V5.36328M16.0508 3.86328H13.0508M9.30078 2.36328C8.40568 3.25839 7.90281 4.47241 7.90281 5.73828C7.90281 7.00415 8.40568 8.21818 9.30078 9.11328C10.1959 10.0084 11.4099 10.5113 12.6758 10.5113C13.9417 10.5113 15.1557 10.0084 16.0508 9.11328C16.0508 10.4483 15.6549 11.7533 14.9132 12.8634C14.1715 13.9734 13.1173 14.8386 11.8839 15.3495C10.6505 15.8604 9.2933 15.994 7.98392 15.7336C6.67455 15.4731 5.47182 14.8303 4.52781 13.8863C3.58381 12.9422 2.94093 11.7395 2.68048 10.4301C2.42003 9.12077 2.55371 7.76357 3.0646 6.53017C3.57549 5.29677 4.44065 4.24256 5.55069 3.50086C6.66072 2.75916 7.96576 2.36328 9.30078 2.36328Z" stroke="#DEE4E9" stroke-width="2" stroke-linecap="round" stroke-linejoin="round"/>
</svg>
