<svg width="26" height="26" viewBox="0 0 26 26" fill="none" xmlns="http://www.w3.org/2000/svg">
<ellipse cx="13.0002" cy="12.9992" rx="12.8" ry="12.8" fill="#555CF3"/>
<ellipse cx="13.0002" cy="12.9992" rx="12.8" ry="12.8" fill="url(#paint0_linear_3186_28243)"/>
<path d="M18.5508 6.36328V9.36328M20.0508 7.86328H17.0508M13.3008 6.36328C12.4057 7.25839 11.9028 8.47241 11.9028 9.73828C11.9028 11.0042 12.4057 12.2182 13.3008 13.1133C14.1959 14.0084 15.4099 14.5113 16.6758 14.5113C17.9417 14.5113 19.1557 14.0084 20.0508 13.1133C20.0508 14.4483 19.6549 15.7533 18.9132 16.8634C18.1715 17.9734 17.1173 18.8386 15.8839 19.3495C14.6505 19.8604 13.2933 19.994 11.9839 19.7336C10.6746 19.4731 9.47182 18.8303 8.52781 17.8863C7.58381 16.9422 6.94093 15.7395 6.68048 14.4301C6.42003 13.1208 6.55371 11.7636 7.0646 10.5302C7.57549 9.29677 8.44065 8.24256 9.55069 7.50086C10.6607 6.75916 11.9658 6.36328 13.3008 6.36328Z" stroke="#DEE4E9" stroke-width="2" stroke-linecap="round" stroke-linejoin="round"/>
<defs>
<linearGradient id="paint0_linear_3186_28243" x1="13.0002" y1="0.199219" x2="13.0002" y2="25.7992" gradientUnits="userSpaceOnUse">
<stop stop-color="#A584F3" stop-opacity="0"/>
<stop offset="1" stop-color="#A584F3"/>
</linearGradient>
</defs>
</svg>
