<svg width="41" height="40" viewBox="0 0 41 40" fill="none" xmlns="http://www.w3.org/2000/svg">
<g id="pencil-ruler">
<path id="Vector" d="M25.5 8.33293L32.1667 14.9996M22.1668 11.6663L15.0001 4.49967C14.2474 3.7506 13.2287 3.33008 12.1668 3.33008C11.1048 3.33008 10.0861 3.7506 9.33343 4.49967L5.0001 8.833C4.25103 9.58571 3.83051 10.6044 3.83051 11.6663C3.83051 12.7283 4.25103 13.747 5.0001 14.4997L12.1668 21.6663M13.8334 9.99959L17.1667 6.66626M30.5 26.6663L33.8334 23.3329M28.8334 18.3329L36 25.4996C37.5667 27.0663 37.5667 29.5996 36 31.1663L31.6667 35.4996C30.1 37.0663 27.5667 37.0663 26 35.4996L18.8334 28.3329M3.83335 36.6661L13 34.1661L35.7834 11.3827C36.6674 10.4987 37.1641 9.29966 37.1641 8.04941C37.1641 6.79917 36.6674 5.60013 35.7834 4.71608C34.8993 3.83202 33.7003 3.33537 32.45 3.33537C31.1998 3.33537 30.0007 3.83202 29.1167 4.71608L6.33335 27.4994L3.83335 36.6661Z" stroke="#1AD598" stroke-width="2" stroke-linecap="round" stroke-linejoin="round"/>
</g>
</svg>
