<svg xmlns="http://www.w3.org/2000/svg" width="24" height="24" viewBox="0 0 24 24" fill="none">
  <path d="M7 21C8.06087 21 9.07828 20.5786 9.82843 19.8284C10.5786 19.0783 11 18.0609 11 17V5C11 4.46957 10.7893 3.96086 10.4142 3.58579C10.0391 3.21071 9.53043 3 9 3H5C4.46957 3 3.96086 3.21071 3.58579 3.58579C3.21071 3.96086 3 4.46957 3 5V17C3 18.0609 3.42143 19.0783 4.17157 19.8284C4.92172 20.5786 5.93913 21 7 21ZM7 21H19C19.5304 21 20.0391 20.7893 20.4142 20.4142C20.7893 20.0391 21 19.5304 21 19V15C21 14.4696 20.7893 13.9609 20.4142 13.5858C20.0391 13.2107 19.5304 13 19 13H16.7M7 17H7.01M11 8.00004L13.3 5.70004C13.5233 5.47596 13.7887 5.29824 14.081 5.17709C14.3732 5.05595 14.6865 4.99377 15.0029 4.99414C15.3192 4.99451 15.6324 5.05742 15.9243 5.17926C16.2163 5.30109 16.4812 5.47944 16.704 5.70405L18.6 7.60005C18.8306 7.82185 19.0145 8.08753 19.141 8.38146C19.2674 8.67538 19.3338 8.99162 19.3362 9.31157C19.3386 9.63152 19.277 9.94873 19.1551 10.2445C19.0331 10.5403 18.8532 10.8088 18.626 11.034L9.90002 19.8"
  style="stroke:currentColor; stroke-width:2; stroke-linecap:round; stroke-linejoin:round"/>
</svg>