<svg xmlns="http://www.w3.org/2000/svg" width="24" height="24" viewBox="0 0 24 24" fill="none">
  <g clip-path="url(#clip0_2588_3165)">
    <path d="M14.9998 4.99976L18.9998 8.99976M12.9998 6.9998L8.6998 2.6998C8.24818 2.25036 7.63695 1.99805 6.9998 1.99805C6.36265 1.99805 5.75143 2.25036 5.2998 2.6998L2.6998 5.2998C2.25036 5.75143 1.99805 6.36265 1.99805 6.9998C1.99805 7.63695 2.25036 8.24818 2.6998 8.6998L6.9998 12.9998M7.99976 5.99976L9.99976 3.99976M17.9998 15.9998L19.9998 13.9998M16.9998 10.9998L21.2998 15.2998C22.2398 16.2398 22.2398 17.7598 21.2998 18.6998L18.6998 21.2998C17.7598 22.2398 16.2398 22.2398 15.2998 21.2998L10.9998 16.9998M1.99976 21.9996L7.49976 20.4996L21.1698 6.82965C21.7002 6.29922 21.9982 5.57979 21.9982 4.82965C21.9982 4.0795 21.7002 3.36008 21.1698 2.82965C20.6393 2.29921 19.9199 2.00122 19.1698 2.00122C18.4196 2.00122 17.7002 2.29921 17.1698 2.82965L3.49976 16.4996L1.99976 21.9996Z"
    style="stroke:#5F6367; stroke-width:2; stroke-linecap:round; stroke-linejoin:round"
     />
  </g>
  <defs>
    <clipPath id="clip0_2588_3165">
      <rect width="24" height="24" fill="white"/>
    </clipPath>
  </defs>
</svg>