<svg width="41" height="40" viewBox="0 0 41 40" fill="none" xmlns="http://www.w3.org/2000/svg">
<g id="sparkles">
<path id="Vector" d="M8.83333 5V11.6667M32.1667 28.3333V35M5.5 8.33333H12.1667M28.8333 31.6667H35.5M20.5 5L17.3133 14.6883C17.1502 15.1842 16.873 15.6348 16.5039 16.0039C16.1348 16.373 15.6842 16.6502 15.1883 16.8133L5.5 20L15.1883 23.1867C15.6842 23.3498 16.1348 23.627 16.5039 23.9961C16.873 24.3652 17.1502 24.8158 17.3133 25.3117L20.5 35L23.6867 25.3117C23.8498 24.8158 24.127 24.3652 24.4961 23.9961C24.8652 23.627 25.3158 23.3498 25.8117 23.1867L35.5 20L25.8117 16.8133C25.3158 16.6502 24.8652 16.373 24.4961 16.0039C24.127 15.6348 23.8498 15.1842 23.6867 14.6883L20.5 5Z" stroke="#FACA4A" stroke-width="2" stroke-linecap="round" stroke-linejoin="round"/>
</g>
</svg>
