<svg width="91" height="91" viewBox="0 0 91 91" fill="none" xmlns="http://www.w3.org/2000/svg">
<path d="M55.6742 43.2918C55.0607 82.2222 1.0127 78.0047 1.0127 62.9715C1.0127 43.2918 55.6742 57.9055 55.6742 88.5547M55.6742 88.5547L47.5773 82.2222M55.6742 88.5547L63.0127 83.4886" stroke="#555CF3" stroke-width="2" stroke-linecap="round"/>
<path d="M63.3421 23.9088C61.5603 22.5345 60.2354 10.2134 58.528 11.2767C56.8207 12.34 52.5188 21.3247 51.2325 21.0176C49.9461 20.7105 38.4186 14.3996 38.8053 15.7256C39.192 17.0516 47.1057 26.9125 46.6433 28.6527C46.181 30.3928 39.8265 38.7452 41.1128 39.0523C42.3992 39.3594 52.8894 33.323 54.5979 33.8258C56.3064 34.3286 64.8193 45.8036 65.9086 44.9723C66.9979 44.141 63.5539 34.0187 64.3863 32.8888C65.2187 31.759 78.86 25.2887 77.2188 24.8969C75.5776 24.505 65.1238 25.2832 63.3421 23.9088Z" stroke="#555CF3" stroke-width="2" stroke-linecap="round"/>
<path d="M71.6973 8.72852C70.1112 9.96505 68.8903 11.085 67.7763 12.7381" stroke="#555CF3" stroke-width="2" stroke-linecap="round"/>
<path d="M75.6343 10.8379C74.5549 11.6728 73.5659 12.5494 72.5646 13.4535" stroke="#555CF3" stroke-width="2" stroke-linecap="round"/>
<path d="M79.2095 15.2285C77.24 16.3332 75.2389 17.2191 73.2066 18.1874" stroke="#555CF3" stroke-width="2" stroke-linecap="round"/>
</svg>
