<svg width="41" height="40" viewBox="0 0 41 40" fill="none" xmlns="http://www.w3.org/2000/svg">
<g id="waypoints">
<path id="Vector" d="M17.5001 10.5007L11.0001 17.0007M12.1667 20.0007C12.1667 22.3018 10.3012 24.1673 8.00004 24.1673C5.69885 24.1673 3.83337 22.3018 3.83337 20.0007C3.83337 17.6995 5.69885 15.834 8.00004 15.834C10.3012 15.834 12.1667 17.6995 12.1667 20.0007ZM12.1667 20.0007H28.8334M28.8334 20.0007C28.8334 22.3018 30.6989 24.1673 33 24.1673C35.3012 24.1673 37.1667 22.3018 37.1667 20.0007C37.1667 17.6995 35.3012 15.834 33 15.834C30.6989 15.834 28.8334 17.6995 28.8334 20.0007ZM23.5001 29.5007L30.0001 23.0007M24.6667 7.50065C24.6667 9.80184 22.8012 11.6673 20.5 11.6673C18.1989 11.6673 16.3334 9.80184 16.3334 7.50065C16.3334 5.19946 18.1989 3.33398 20.5 3.33398C22.8012 3.33398 24.6667 5.19946 24.6667 7.50065ZM24.6667 32.5007C24.6667 34.8018 22.8012 36.6673 20.5 36.6673C18.1989 36.6673 16.3334 34.8018 16.3334 32.5007C16.3334 30.1995 18.1989 28.334 20.5 28.334C22.8012 28.334 24.6667 30.1995 24.6667 32.5007Z" stroke="#F3654A" stroke-width="2" stroke-linecap="round" stroke-linejoin="round"/>
</g>
</svg>
